HIERARCHY
ROOT Hips
{
  OFFSET -32.5998 29.0326 120.673
  CHANNELS 6 Xposition Yposition Zposition Zrotation Xrotation Yrotation
  JOINT LeftUpLeg
  {
    OFFSET 8.64259 1.95398 -2.38835
    CHANNELS 3 Zrotation Xrotation Yrotation
    JOINT LeftLeg
    {
      OFFSET 43.7702 0 0
      CHANNELS 3 Zrotation Xrotation Yrotation
      JOINT LeftFoot
      {
        OFFSET 40.6238 0 0
        CHANNELS 3 Zrotation Xrotation Yrotation
        JOINT LeftToeBase
        {
          OFFSET 12.7242 0 0
          CHANNELS 3 Zrotation Xrotation Yrotation
          End Site
          {
            OFFSET 0 0 0
          }
        }
      }
    }
  }
  JOINT RightUpLeg
  {
    OFFSET -8.2249 1.95398 -2.59336
    CHANNELS 3 Zrotation Xrotation Yrotation
    JOINT RightLeg
    {
      OFFSET 43.5653 0 0
      CHANNELS 3 Zrotation Xrotation Yrotation
      JOINT RightFoot
      {
        OFFSET 40.6238 0 0
        CHANNELS 3 Zrotation Xrotation Yrotation
        JOINT RightToeBase
        {
          OFFSET 12.7242 0 0
          CHANNELS 3 Zrotation Xrotation Yrotation
          End Site
          {
            OFFSET 0 0 0
          }
        }
      }
    }
  }
  JOINT Spine
  {
    OFFSET 0.165834 0.87714 6.61349
    CHANNELS 3 Zrotation Xrotation Yrotation
    JOINT Spine1
    {
      OFFSET 7.38963 1.71661e-005 0
      CHANNELS 3 Zrotation Xrotation Yrotation
      JOINT Spine2
      {
        OFFSET 11.9445 1.14441e-005 0
        CHANNELS 3 Zrotation Xrotation Yrotation
        JOINT Spine3
        {
          OFFSET 14.7254 4.19617e-005 0
          CHANNELS 3 Zrotation Xrotation Yrotation
          JOINT Spine4
          {
            OFFSET 10.9679 0 0
            CHANNELS 3 Zrotation Xrotation Yrotation
            JOINT RightShoulder
            {
              OFFSET 2.46616 -1.6653 3.69651
              CHANNELS 3 Zrotation Xrotation Yrotation
              JOINT RightArm
              {
                OFFSET 13.0012 0 0
                CHANNELS 3 Zrotation Xrotation Yrotation
                JOINT RightForeArm
                {
                  OFFSET 28.7848 1.62311e-005 0
                  CHANNELS 3 Zrotation Xrotation Yrotation
                  JOINT RightHand
                  {
                    OFFSET 26.5688 1.62095e-005 0
                    CHANNELS 3 Zrotation Xrotation Yrotation
                    End Site
                    {
                      OFFSET 0 0 0
                    }
                  }
                }
              }
            }
            JOINT LeftShoulder
            {
              OFFSET 2.38034 -1.29275 -3.7523
              CHANNELS 3 Zrotation Xrotation Yrotation
              JOINT LeftArm
              {
                OFFSET 16.3182 6.07031e-005 0
                CHANNELS 3 Zrotation Xrotation Yrotation
                JOINT LeftForeArm
                {
                  OFFSET 27.0901 0 0
                  CHANNELS 3 Zrotation Xrotation Yrotation
                  JOINT LeftHand
                  {
                    OFFSET 24.5451 1.51738e-005 0
                    CHANNELS 3 Zrotation Xrotation Yrotation
                    End Site
                    {
                      OFFSET 0 0 0
                    }
                  }
                }
              }
            }
            JOINT Neck
            {
              OFFSET 5.0226 -0.0266342 0
              CHANNELS 3 Zrotation Xrotation Yrotation
              JOINT Head
              {
                OFFSET 6.69364 2.86102e-005 0
                CHANNELS 3 Zrotation Xrotation Yrotation
                End Site
                {
                  OFFSET 0 0 0
                }
              }
            }
          }
        }
      }
    }
  }
}
MOTION
Frames:	15
Frame Time:	0.0416667
19.8357 94.1367 41.5936 83.8222 -47.6746 89.1233 -167.517 -6.11216 88.7833 -75.6773 1.23211 0.0374501 55.1357 -5.85985 3.87152 20.2223 0.279872 -7.83938 -179.899 35.5622 97.3349 -34.0814 -14.5673 -0.201663 65.7606 -2.58176 -0.088814 22.1387 1.82448 3.86204 -0.725279 7.76497 -91.178 11.3209 -1.99217 -2.14709 -0.350151 -2.08473 -2.05735 -22.8769 -1.25505 -2.6463 -2.86423 -1.25505 -2.6463 91.0913 -23.1148 -107.292 8.61225 -7.68514 -25.6927 8.00972 12.8712 -84.7074 -20.9686 -1.75514 4.51476 -90.648 -45.5191 76.7037 -1.66207 5.63906 -39.5034 53.5149 19.4075 -71.2993 -21.5193 12.5169 -70.8075 16.3687 9.73878 4.60426 -12.7631 8.06111 1.50805 
25.3166 92.8191 46.7826 84.894 -46.6587 89.2644 -164.92 0.586855 90.3141 -87.6008 -5.76877 1.34051 59.6622 -3.1238 5.83583 17.2709 -0.726061 -7.86259 178.4 36.2858 97.1106 -45.1497 -17.132 -0.100178 68.8296 -4.67957 -2.85157 11.613 4.5906 8.11561 -0.462172 7.84612 -91.0729 11.1649 -1.41844 -1.99726 -0.50677 -1.50494 -1.93293 -23.0318 -0.752787 -2.33104 -3.0191 -0.752797 -2.33106 91.0603 -21.8257 -107.944 7.48237 -4.9137 -26.7196 9.03652 12.7972 -83.491 -22.4785 -1.9695 4.94595 -91.3106 -46.6706 75.9588 -0.477114 4.18843 -43.1393 38.2071 13.5248 -66.2986 -27.0833 14.5156 -65.0869 16.2059 8.63743 5.82612 -11.1777 6.75533 0.224824 
30.0198 91.0871 51.7151 84.6068 -45.9366 90.6828 -163.773 11.7863 90.3281 -100.011 -5.96695 3.15852 62.7387 -1.20131 7.47859 13.9665 -1.52132 -8.50996 177.34 35.5601 99.4108 -53.103 -14.1082 0.169408 75.0131 -9.69228 -2.77307 21.837 1.70586 4.6847 -0.0500712 7.95245 -91.2168 10.956 -0.662909 -2.35789 -0.7169 -0.766004 -2.32647 -23.2349 0.0761497 -2.44808 -3.22223 0.076146 -2.44808 91.0905 -21.0464 -108.235 5.9962 -1.36132 -28.4651 10.1376 12.8401 -82.0421 -22.8229 -2.09807 5.43961 -91.7941 -47.8249 75.5104 0.0570225 2.81075 -46.6336 20.2565 2.7381 -63.0826 -33.4415 14.3805 -53.7902 18.305 7.45004 6.40803 -10.4004 5.32509 -0.0684951 
34.3877 90.2271 56.7983 84.5204 -44.2448 92.6606 -166.406 23.6271 92.3394 -109.506 2.76432 4.18232 63.8377 0.827528 11.8783 10.3455 -2.28956 -9.41115 174.976 31.6225 101.639 -55.7853 -12.7103 1.33125 80.4921 -14.0787 -3.76132 21.6991 0.842429 7.60712 0.258944 8.05726 -91.3725 10.75 -0.117282 -2.71843 -0.923805 -0.236766 -2.71065 -23.4372 0.70485 -2.62815 -3.42453 0.704853 -2.62815 90.8807 -21.2329 -108.622 4.27944 1.6049 -29.9371 17.5998 13.9511 -80.6122 -28.8215 -2.92518 6.41002 -91.9648 -47.0721 75.0554 -1.93665 0.570522 -49.5574 2.71758 -9.80062 -58.7585 -28.0061 7.2413 -34.4146 20.9336 5.96934 5.51767 -10.8746 3.97422 0.322464 
39.8512 89.694 62.3479 85.0292 -41.6167 92.4074 -170.422 32.2274 91.2752 -113.494 8.55991 4.33316 67.2583 4.02799 13.0954 10.0648 -1.54221 -10.8185 173.566 25.4428 100.484 -56.5978 -11.6119 1.83107 85.4501 -17.3153 -2.58611 25.2785 0.245829 4.80801 0.330721 8.16627 -91.3396 10.5342 0.0437304 -2.66607 -1.13948 -0.0736222 -2.66541 -23.6543 0.842707 -2.52984 -3.64167 0.842699 -2.52985 91.1094 -18.9446 -109.222 4.85787 4.47866 -29.9941 13.8171 14.1426 -77.7885 -24.1645 -2.10399 4.84974 -91.0046 -47.4817 76.6318 -2.42417 0.992579 -52.5336 -9.25744 -19.7387 -57.6104 -19.6876 2.57872 -21.768 23.1114 5.19529 6.93892 -12.0817 2.74575 -1.3819 
45.7109 89.2733 68.245 85.705 -38.678 91.2749 -173.646 39.0895 89.1129 -113.152 9.55185 4.29138 71.4899 6.65491 12.1206 14.8134 0.358745 -11.3997 172.818 17.6737 98.865 -55.0571 -8.52445 1.9429 90.233 -21.0704 -2.99047 26.4881 -0.676429 6.46707 0.44293 8.19381 -91.1045 10.4855 0.375425 -2.22871 -1.18729 0.277018 -2.24307 -23.7099 1.02779 -2.013 -3.69724 1.02777 -2.01301 90.9088 -19.3308 -109.499 5.92979 7.32849 -28.6132 13.0628 13.9486 -75.7675 -22.7802 -1.70146 3.44839 -90.5865 -46.1409 76.9522 -6.05875 1.56851 -54.2203 -13.7521 -23.5272 -55.5614 -10.4935 0.464918 -12.5072 22.8369 2.87884 5.96387 -11.5771 0.876671 -1.73782 
51.7752 89.7788 74.2153 84.741 -37.0973 87.865 -172.542 45.3269 84.2413 -107.795 7.16741 3.90232 74.4704 8.10138 10.5755 20.8731 0.183101 -7.19669 171.825 11.2183 95.5651 -51.4613 -10.8766 1.89968 88.591 -20.7172 -5.26202 30.9681 -2.09348 5.00162 0.609426 8.01986 -90.6696 10.8391 0.904143 -1.41872 -0.832375 0.840847 -1.45714 -23.3661 1.2887 -1.08145 -3.35347 1.28872 -1.08144 90.0764 -21.0937 -110.526 7.18775 9.40666 -26.7409 13.7036 13.9984 -74.3338 -22.558 -1.69771 3.50968 -90.1971 -46.3653 77.6113 -4.57606 4.226 -55.2431 -17.6124 -26.5294 -55.2343 -7.09715 0.0914409 -9.3798 21.2525 0.576672 4.2867 -10.7306 -0.7069 -1.95763 
58.3084 90.9073 80.6711 84.8823 -36.3941 85.6728 -170.52 48.3039 80.3198 -99.3897 4.79036 3.05992 77.7555 9.59473 9.08044 22.1242 -0.271384 -5.26762 171.743 2.37104 94.0237 -45.0997 -12.8497 1.36383 82.1695 -17.0208 -8.6555 36.758 -4.56036 6.54741 0.851679 7.9302 -90.2628 11.0186 1.57374 -0.673153 -0.651641 1.54259 -0.74178 -23.1943 1.70327 -0.168937 -3.18164 1.70328 -0.168929 89.6117 -22.7384 -110.737 10.2907 11.0889 -25.3543 14.6043 14.0436 -73.1837 -23.5281 -1.63822 2.87499 -89.2981 -46.0834 78.9504 -2.58688 7.25601 -55.5813 -19.6293 -28.3199 -54.582 -2.26918 -0.0628175 -6.57459 20.0853 -1.67144 1.55954 -10.8877 -2.0496 -0.891503 
65.1412 92.4041 87.5236 86.5582 -36.2227 85.0027 -169.835 48.2594 78.6865 -88.7339 3.91277 1.68762 79.3912 10.1339 7.37042 24.3319 0.495355 -5.19572 172.631 -6.74177 92.8999 -36.5765 -11.3311 0.000673286 73.6132 -10.0045 -7.68953 40.8885 -6.48425 10.1578 1.14411 7.95991 -89.9143 10.9564 2.31748 -0.0495591 -0.712486 2.31303 -0.151569 -23.2633 2.22516 0.649573 -3.25067 2.22516 0.649577 88.6932 -24.5876 -111.807 13.0748 13.019 -22.5285 10.1513 12.7537 -72.2578 -19.1948 -1.0428 1.11264 -88.3789 -45.3358 80.2366 -0.499523 11.0714 -54.4104 -21.0352 -28.4524 -56.1689 -0.199451 -0.125511 -6.21391 18.7535 -3.69066 -0.127115 -11.4333 -3.40781 -1.84237 
72.2193 94.0979 94.5533 86.6483 -36.4717 83.2064 -169.625 47.2774 77.604 -75.4996 4.06612 -0.388747 80.5728 10.9537 5.54643 23.0274 -0.108001 -4.90157 173.391 -14.2463 91.5241 -28.7319 -13.3488 -2.0068 62.8709 -1.17369 -4.86443 37.6169 -5.31717 9.79031 1.57653 7.82878 -89.502 11.2081 3.36927 0.660387 -0.458529 3.39506 0.511284 -23.0218 3.01491 1.64328 -3.00913 3.01492 1.64328 88.1788 -26.5807 -111.91 16.305 15.049 -18.8319 12.9843 12.3459 -72.6659 -21.9137 -1.1892 1.09314 -87.9287 -43.478 80.5732 3.83786 16.2588 -55.2479 -23.4116 -30.9076 -56.6587 -0.285502 -0.151548 -7.79176 18.0688 -6.55713 -3.4529 -13.5204 -5.19514 -1.55916 
79.5497 95.3063 101.502 85.3978 -35.6495 80.3738 -170.995 46.0906 76.2906 -60.7149 3.78445 -2.40763 79.9674 10.7085 3.10811 25.2625 0.0791858 -3.46655 173.077 -18.9233 90.2034 -24.8877 -15.2955 -3.27957 57.3589 3.49425 -1.89413 18.8289 2.23239 6.89671 1.83327 7.64325 -89.14 11.572 4.04962 1.29462 -0.0930851 4.10265 1.11487 -22.6629 3.47322 2.4529 -2.65028 3.47323 2.45289 87.9575 -25.9711 -112.666 19.3706 18.0586 -14.9113 10.6428 10.7345 -72.6051 -20.0695 -0.841455 -0.443879 -87.4328 -41.9613 81.0639 6.97427 19.9253 -55.3573 -24.8494 -31.1334 -58.7884 -0.45956 -0.175267 -9.28298 18.5171 -8.4347 -3.77492 -16.2617 -6.66515 -3.48862 
86.5485 95.8202 108.226 84.0348 -34.4576 78.609 -172.702 44.9838 76.2747 -46.3846 5.99611 -3.92665 76.8099 9.09421 1.05934 25.945 -0.454673 -1.63314 172.914 -21.7709 90.4467 -25.9609 -17.982 -3.42083 58.268 3.09733 -2.09144 16.324 3.03761 7.3383 2.03952 7.57495 -88.9059 11.6929 4.56986 1.70258 0.0291549 4.64036 1.49943 -22.5459 3.84688 2.99857 -2.53328 3.84686 2.99856 88.5046 -26.284 -111.377 21.3199 20.1803 -13.8746 16.6857 11.3774 -72.3248 -25.1939 -0.840519 -1.37941 -87.2002 -39.6518 80.9834 10.5234 21.3653 -57.1351 -26.9516 -31.6739 -61.0635 -0.298393 -0.211071 -11.0611 19.298 -10.1369 -4.42377 -16.7018 -7.97365 -4.40466 
93.3869 95.5131 114.387 82.4829 -32.4018 78.3687 -174.95 44.4562 76.7911 -34.2046 9.10589 -4.1291 73.9217 7.72062 -0.117888 27.4834 -0.503269 -0.0637686 175.034 -22.9535 94.1842 -30.1052 -17.8844 -2.8159 60.2068 1.51134 -1.46193 20.0438 2.08412 5.75761 2.07157 7.3543 -88.9765 12.1395 4.60191 1.53354 0.476036 4.66495 1.32913 -22.1026 3.92814 2.84718 -2.09 3.92817 2.84719 88.9969 -25.4384 -110.752 22.2789 20.2474 -11.7873 30.3975 12.6227 -72.7321 -36.0786 -1.11193 -1.69878 -87.8193 -41.9534 80.4325 14.4103 22.533 -56.2021 -29.7189 -30.5985 -65.245 -0.0534242 -0.196254 -9.58786 17.9451 -10.5471 -2.09898 -15.3009 -8.90739 -7.00407 
99.4976 95.0355 120.659 82.3822 -30.9048 81.853 -176.202 43.5549 79.7843 -27.9999 14.1864 -3.87725 73.905 8.094 0.308728 25.8173 -1.59055 0.794106 178.281 -22.9317 100.876 -36.5275 -17.3389 -0.468705 59.0918 1.94029 -0.980054 20.5491 1.35349 7.40141 2.11365 7.24063 -89.3321 12.3844 4.51733 0.819473 0.721191 4.54901 0.619459 -21.8653 4.06193 2.14125 -1.85265 4.06193 2.14125 89.2427 -26.5254 -109.735 22.1362 19.025 -10.6508 32.0611 12.0358 -73.0076 -38.5895 -1.59179 -0.541558 -87.7584 -42.5775 80.6621 14.3062 23.368 -56.4566 -29.2635 -29.8647 -66.5607 0.0175033 -0.201588 -9.65331 17.9158 -11.9704 -4.58601 -14.5556 -9.85723 -4.4616 
105.881 94.3133 126.746 83.6305 -28.9503 85.0035 -176.729 41.8919 80.9866 -27.8034 14.9716 -3.4738 74.7311 8.40278 0.077585 22.1855 -5.25562 5.14345 178.204 -22.1534 104.498 -46.3671 -15.5778 2.28976 58.6327 2.34335 0.243093 24.5604 -0.48981 8.45155 1.96883 7.28435 -89.7041 12.3113 4.05298 0.131305 0.646733 4.05485 -0.0475086 -21.9354 3.82587 1.34513 -1.92276 3.82586 1.34513 89.3193 -25.8436 -109.897 22.3714 18.1527 -8.66944 26.974 10.8961 -73.8859 -34.0422 -1.93089 1.28184 -88.1201 -44.5244 80.4822 14.8078 23.5436 -56.3723 -28.1422 -29.302 -66.6822 -0.442365 -0.153211 -8.40163 17.9623 -12.4838 -5.17449 -13.8831 -10.2828 -3.61991 
